<svg width="145" height="60" viewBox="0 0 145 60" fill="none" xmlns="http://www.w3.org/2000/svg">
<g clip-path="url(#clip0_1627_4632)">
<path fill-rule="evenodd" clip-rule="evenodd" d="M76.6095 15.4615H0.801669C0.35073 15.4615 0 15.1163 0 14.6725C0 14.2287 0.35073 13.8835 0.801669 13.8835H75.908L87.7827 0.272776C88.0834 -0.072423 88.5844 -0.072423 88.885 0.174148C89.2358 0.470033 89.2358 0.963175 88.9852 1.25906L76.6095 15.4615ZM98.2047 41.3509L100.259 45.9864H103.816L93.1943 24.0416C92.9939 23.7457 92.7934 23.4992 92.5429 23.3019C92.2924 23.1047 91.9918 23.006 91.641 23.006C91.2903 23.006 90.9897 23.1047 90.7392 23.3019C90.4886 23.4499 90.2882 23.7457 90.0878 24.0416L79.4657 46.0357H83.1734L91.5909 27.2964L96.902 38.8359L88.1337 38.7373L86.9312 41.3509H98.2047ZM0.751583 27.6416H4.00836V45.9865H0.751583V27.6416ZM16.1336 45.9865L5.66181 37.899C5.36118 37.7017 5.21087 37.4551 5.11066 37.2579C5.01045 37.0606 5.01045 36.8141 5.01045 36.5675C5.01045 36.2716 5.06055 36.025 5.16076 35.8278C5.26097 35.6305 5.46139 35.3839 5.81212 35.1374L15.6827 27.6416H20.6931L8.46765 36.6168L21.0438 45.9865H16.1336ZM28.559 45.9865C27.2563 45.9865 26.0538 45.7399 24.9515 45.2468C23.8492 44.7536 22.8973 44.1126 22.0956 43.2742C21.2939 42.4359 20.6426 41.4496 20.1916 40.3154C19.7407 39.1811 19.4902 37.9483 19.4902 36.6168C19.4902 35.2853 19.7407 34.0525 20.1916 32.9182C20.6426 31.784 21.2939 30.847 22.0956 30.058C22.8973 29.269 23.8492 28.6772 24.9515 28.2334C26.0538 27.8389 27.2563 27.6416 28.559 27.6416H33.0684C34.4212 27.6416 35.6739 27.8389 36.7761 28.2827C37.8784 28.7265 38.8805 29.3183 39.6822 30.1073C40.4839 30.8964 41.0851 31.8333 41.5361 32.9675C41.987 34.0525 42.1874 35.2853 42.1874 36.6168C42.1874 37.9483 41.9369 39.1811 41.486 40.3154C41.035 41.4496 40.3837 42.4359 39.582 43.2742C38.7803 44.1126 37.8283 44.7536 36.6759 45.2468C35.5736 45.7399 34.321 45.9865 33.0183 45.9865H28.559ZM33.0684 42.7811C33.9202 42.7811 34.7219 42.6331 35.4233 42.3372C36.1248 42.0414 36.7761 41.5975 37.2772 41.1044C37.7782 40.5619 38.2292 39.9208 38.4797 39.1811C38.7803 38.4414 38.9306 37.6524 38.9306 36.7647C38.9306 35.9264 38.7803 35.0881 38.4797 34.3977C38.1791 33.6579 37.7782 33.0169 37.2772 32.5237C36.7761 31.9813 36.1248 31.5868 35.4233 31.2909C34.7219 30.995 33.9202 30.847 33.0684 30.847H28.559C27.7073 30.847 26.9557 30.995 26.2542 31.2909C25.5528 31.5868 24.9515 31.9813 24.4004 32.5237C23.8993 33.0662 23.4985 33.6579 23.1979 34.3977C22.8973 35.1374 22.7469 35.9264 22.7469 36.8141C22.7469 37.6524 22.8973 38.4907 23.1979 39.2304C23.4985 39.9702 23.8993 40.6112 24.4004 41.1537C24.9014 41.6962 25.5027 42.0907 26.2542 42.3866C26.9557 42.6824 27.7574 42.8304 28.559 42.8304H33.0684V42.7811ZM47.8496 27.6416H44.5928V46.0851H47.8496V27.6416ZM59.6241 38.0962V46.0851H62.8809V27.6416H59.6241V35.236H49.9039V38.0962H59.6241ZM71.8496 45.9865V30.847H64.7348V27.6416H82.1711V30.847H75.1064V45.9865H71.8496ZM105.67 27.6416H108.927V45.9865H105.67V27.6416ZM121.002 45.9865L110.58 37.899C110.279 37.7017 110.129 37.4551 110.029 37.2579C109.929 37.0606 109.929 36.8141 109.929 36.5675C109.929 36.2716 109.979 36.025 110.079 35.8278C110.179 35.6305 110.38 35.3839 110.73 35.1374L120.601 27.6416H125.611L113.386 36.6168L125.962 45.9865H121.002ZM133.829 30.847V45.9865H137.086V30.847H144.15V27.6416H126.764V30.847H133.829ZM98.3545 15.461H144.1C144.551 15.461 144.901 15.1158 144.901 14.6719C144.901 14.2281 144.551 13.8829 144.1 13.8829H98.3545C97.9035 13.8829 97.5528 14.2281 97.5528 14.6719C97.5528 15.1158 97.9035 15.461 98.3545 15.461ZM78.7114 19.1103H0.849299C0.39836 19.1103 0.0476303 18.7651 0.0476303 18.3213C0.0476303 17.8775 0.39836 17.5323 0.849299 17.5323H77.9598L89.8345 3.97089C90.1352 3.62569 90.6362 3.62569 90.9368 3.87226C91.2876 4.16814 91.2876 4.66128 91.037 4.95717L78.7114 19.1103ZM100.709 19.1103H144.2C144.601 19.1103 144.951 18.7651 144.951 18.3213C144.951 17.8774 144.601 17.5322 144.15 17.5322H100.709C100.258 17.5322 99.9077 17.8774 99.9077 18.3213C99.9077 18.7651 100.258 19.1103 100.709 19.1103ZM80.6654 22.9075H0.849299C0.39836 22.9075 0.0476303 22.5623 0.0476303 22.1185C0.0476303 21.6747 0.39836 21.3295 0.849299 21.3295H79.964L91.8387 7.71877C92.1393 7.37357 92.6404 7.37357 92.941 7.62014C93.2917 7.91603 93.2917 8.40917 93.0412 8.70505L80.6654 22.9075ZM103.213 23.006H144.198C144.599 23.006 144.95 22.6608 145 22.217C145 21.7732 144.649 21.428 144.198 21.428H103.213C102.762 21.428 102.411 21.7732 102.411 22.217C102.411 22.6608 102.762 23.006 103.213 23.006Z" fill="#E8E31B"/>
</g>
<defs>
<clipPath id="clip0_1627_4632">
<rect width="145" height="60" fill="white"/>
</clipPath>
</defs>
</svg>
