<svg width="46" height="46" viewBox="0 0 46 46" fill="none" xmlns="http://www.w3.org/2000/svg">
<path opacity="0.2" d="M23 5.28163e-05C28.2235 -0.0111655 33.2936 1.76501 37.3676 5.03341L41.1046 1.29721C41.1941 1.20772 41.3082 1.14678 41.4324 1.12209C41.5565 1.0974 41.6852 1.11008 41.8022 1.15852C41.9191 1.20696 42.0191 1.28898 42.0894 1.39421C42.1597 1.49945 42.1972 1.62317 42.1972 1.74973V13.8867C42.1972 14.0565 42.1298 14.2192 42.0098 14.3392C41.8897 14.4592 41.7269 14.5267 41.5572 14.5267L29.4176 14.5267C29.291 14.5267 29.1672 14.4892 29.062 14.4189C28.9567 14.3485 28.8747 14.2486 28.8262 14.1317C28.7778 14.0147 28.7651 13.8861 28.7898 13.7619C28.8145 13.6378 28.8754 13.5238 28.9649 13.4343L33.008 9.3921C30.4926 7.53895 27.5122 6.42001 24.3986 6.15984C21.2849 5.89966 18.1601 6.50845 15.372 7.91844C12.5838 9.32843 10.2417 11.4843 8.6064 14.1461C6.97105 16.8079 6.1066 19.8712 6.10925 22.9951H6.13413e-06C-0.00220096 19.9747 0.591205 16.9835 1.74628 14.1926C2.90136 11.4018 4.59544 8.86594 6.73163 6.73022C8.86781 4.59449 11.4042 2.90078 14.1957 1.74595C16.9872 0.591124 19.979 -0.0021538 23 5.28163e-05ZM38.4773 29.7703C37.4604 32.0903 35.9347 34.152 34.013 35.8027C32.0913 37.4534 29.8229 38.6509 27.3756 39.3065C24.9284 39.9622 22.365 40.0592 19.8753 39.5903C17.3855 39.1215 15.033 38.0988 12.992 36.5981L17.0351 32.5559C17.1246 32.4664 17.1855 32.3524 17.2102 32.2282C17.2349 32.1041 17.2222 31.9754 17.1738 31.8585C17.1253 31.7415 17.0433 31.6416 16.938 31.5713C16.8328 31.501 16.709 31.4634 16.5824 31.4634L4.44284 31.4635C4.27308 31.4635 4.11028 31.5309 3.99024 31.6509C3.87021 31.7709 3.80277 31.9337 3.80277 32.1034V44.2404C3.80276 44.367 3.84029 44.4907 3.91062 44.5959C3.98094 44.7012 4.0809 44.7832 4.19785 44.8316C4.3148 44.8801 4.44349 44.8927 4.56765 44.8681C4.69181 44.8434 4.80585 44.7824 4.89537 44.6929L8.63236 40.9567C12.0153 43.6645 16.0947 45.3615 20.4004 45.8521C24.706 46.3427 29.0627 45.607 32.9683 43.7296C36.874 41.8523 40.1695 38.9098 42.4751 35.2414C44.7808 31.5729 46.0027 27.3277 46 22.9951H39.8907C39.8963 25.3272 39.4149 27.6348 38.4773 29.7703Z" fill="white"/>
</svg>
